<svg xmlns="http://www.w3.org/2000/svg" version="1.1" xmlns:xlink="http://www.w3.org/1999/xlink" xmlns:svgjs="http://svgjs.com/svgjs" width="512" height="512" x="0" y="0" viewBox="0 0 64 64" style="enable-background:new 0 0 512 512" xml:space="preserve" class=""><g><g xmlns="http://www.w3.org/2000/svg"><path d="m31 34.816v2.184h2v-2h2v-3c0-1.654-1.346-3-3-3-.551 0-1-.448-1-1v-1h1c.551 0 1 .448 1 1v1h2v-1c0-1.302-.839-2.402-2-2.816v-2.184h-2v2h-2v3c0 1.654 1.346 3 3 3 .551 0 1 .448 1 1v1h-1c-.551 0-1-.448-1-1v-1h-2v1c0 1.302.839 2.402 2 2.816z" fill="#ce9a62" data-original="#000000" class=""></path><path d="m61 29h-18v-17c0-1.654-1.346-3-3-3s-3 1.346-3 3v6c0 .552-.449 1-1 1s-1-.448-1-1v-14c0-1.654-1.346-3-3-3s-3 1.346-3 3v10c0 .552-.449 1-1 1s-1-.448-1-1v-4c0-1.654-1.346-3-3-3s-3 1.346-3 3v19h-18c-1.103 0-2 .897-2 2v30c0 1.103.897 2 2 2h58c1.103 0 2-.897 2-2v-30c0-1.103-.897-2-2-2zm0 7.92c-3.059-.441-5.479-2.861-5.92-5.92h5.92zm-7.941-5.92c.463 4.165 3.777 7.478 7.941 7.941v6.118c-4.164.463-7.478 3.776-7.941 7.941h-14.163c3.66-2.303 6.104-6.367 6.104-11 0-1.576-.294-3.104-.841-4.561l4.142-4.439h-5.301v-2zm7.941 24v2h-58v-2zm-58-2v-5.92c3.059.441 5.479 2.861 5.92 5.92zm18.398-13.893 10.602 11.359 10.602-11.359c.255.937.398 1.903.398 2.893 0 6.065-4.935 11-11 11s-11-4.935-11-11c0-.99.143-1.956.398-2.893zm33.682 13.893c.441-3.059 2.861-5.479 5.92-5.92v5.92zm-32.08-43c0-.552.449-1 1-1s1 .448 1 1v4c0 1.654 1.346 3 3 3s3-1.346 3-3v-10c0-.552.449-1 1-1s1 .448 1 1v14c0 1.654 1.346 3 3 3s3-1.346 3-3v-6c0-.552.449-1 1-1s1 .448 1 1v23h2.699l-11.699 12.534-11.699-12.534h2.699zm-2 23h-5.301l4.143 4.439c-.548 1.457-.842 2.985-.842 4.561 0 4.633 2.444 8.697 6.104 11h-14.163c-.463-4.165-3.777-7.478-7.941-7.941v-6.118c4.164-.463 7.478-3.776 7.941-7.941h10.059zm-12.08-2c-.441 3.059-2.861 5.479-5.92 5.92v-5.92zm-5.92 30v-2h58v2z" fill="#ce9a62" data-original="#000000" class=""></path><path d="m10.707 21.707-1.414-1.414-2.293 2.293v-13.586h-2v13.586l-2.293-2.293-1.414 1.414 4.707 4.707z" fill="#ce9a62" data-original="#000000" class=""></path><path d="m18.707 13.707-1.414-1.414-2.293 2.293v-13.586h-2v13.586l-2.293-2.293-1.414 1.414 4.707 4.707z" fill="#ce9a62" data-original="#000000" class=""></path><path d="m54.707 20.293-1.414 1.414 4.707 4.707 4.707-4.707-1.414-1.414-2.293 2.293v-13.586h-2v13.586z" fill="#ce9a62" data-original="#000000" class=""></path><path d="m54.707 13.707-1.414-1.414-2.293 2.293v-13.586h-2v13.586l-2.293-2.293-1.414 1.414 4.707 4.707z" fill="#ce9a62" data-original="#000000" class=""></path></g></g></svg>