<svg xmlns="http://www.w3.org/2000/svg" version="1.1" xmlns:xlink="http://www.w3.org/1999/xlink" xmlns:svgjs="http://svgjs.com/svgjs" width="512" height="512" x="0" y="0" viewBox="0 0 64 64" style="enable-background:new 0 0 512 512" xml:space="preserve" class=""><g><g xmlns="http://www.w3.org/2000/svg"><path d="m36.698 21.332.583-2.332h-10.562l.583 2.332c.54 2.16 2.472 3.668 4.698 3.668s4.158-1.508 4.698-3.668zm-7.412-.332h5.429c-.367 1.186-1.461 2-2.714 2s-2.349-.814-2.715-2z" fill="#ce9a62" data-original="#000000" class=""></path><path d="m57 9c-2.206 0-4 1.794-4 4v.184c-1.161.414-2 1.514-2 2.816 0 1.557.606 3.021 1.707 4.121l.286.286c-.215 5.878-5.064 10.593-10.993 10.593h-4.36c-.475 0-.888-.338-.981-.804l-.449-2.247c2.566-1.365 4.396-3.934 4.732-6.949h1.058c1.654 0 3-1.346 3-3 0-1.239-.755-2.304-1.828-2.761l.702-3.511c1.892-.873 3.126-2.77 3.126-4.89v-.451c0-2.97-2.417-5.387-5.387-5.387h-13.523c-5.012 0-9.09 4.078-9.09 9.09 0 1.404.332 2.81.959 4.065l.612 1.223c-.931.51-1.571 1.488-1.571 2.622 0 1.654 1.346 3 3 3h1.059c.335 3.016 2.165 5.585 4.732 6.949l-.492 2.458c-.083.417-.423.737-.846.794l-8.537 1.164c-7.363 1.005-12.916 7.366-12.916 14.798 0 8.733 7.104 15.837 15.837 15.837h2.163 2 15 3 4.066l-1.373-21.289c8.919-1.861 15.307-9.63 15.307-18.836v-9.875c0-2.206-1.794-4-4-4zm-19.38 23.998-.575 3.163-4.021-2.68 2.234-1.676c.551.723 1.41 1.187 2.362 1.193zm-.964 5.307-.341 1.873c-.087.476-.501.822-.984.822h-6.504c-.521 0-.949-.391-.996-.909l-.181-1.989 4.35-2.9zm-7.204-8.466.231-1.153c.74.198 1.515.314 2.317.314s1.577-.116 2.317-.314l.23 1.153-2.547 1.911zm12.548-10.839h-1v-2h1c.551 0 1 .449 1 1s-.449 1-1 1zm-19 0h-1c-.551 0-1-.449-1-1s.449-1 1-1h1zm2 1v-7.868c0-.349.186-.678.486-.857l3.514-2.109 4.485 2.691 1.029-1.715-4.683-2.81-.883-2.649-1.897.633.746 2.239-3.34 2.005c-.899.539-1.457 1.524-1.457 2.572v2.868h-.382l-.87-1.739c-.489-.979-.748-2.076-.748-3.171 0-3.909 3.181-7.09 7.09-7.09h13.522c1.868 0 3.388 1.52 3.388 3.387v.451c0 1.46-.931 2.751-2.316 3.213l-.55.184-.954 4.765h-.18v-2.868c0-1.048-.558-2.034-1.457-2.572l-4.029-2.417-1.029 1.715 4.029 2.417c.3.18.486.508.486.857v7.868c0 3.86-3.14 7-7 7s-7-3.14-7-7zm3.814 11.86 2.162 1.621-3.531 2.354-.251-2.756c.672-.204 1.239-.643 1.62-1.219zm-10.627 2.487.813-.111v4.798c-1.437.112-2.774.574-3.931 1.303l-1.627-4.339c1.428-.836 3.026-1.417 4.745-1.651zm.813 6.687v12.144c-.727.259-1.329.784-1.675 1.465-2.625-1.296-4.325-3.977-4.325-6.968 0-3.452 2.635-6.301 6-6.641zm4 19.966h-2.163c-7.63 0-13.837-6.207-13.837-13.837 0-3.977 1.839-7.596 4.747-9.99l1.685 4.494c-1.502 1.56-2.432 3.676-2.432 6.008 0 4.214 2.686 7.941 6.684 9.273l1.316.439v-1.387c0-.551.449-1 1-1s1 .449 1 1v1h2zm.184-6h-.356c-.301-.85-.978-1.522-1.829-1.824v-19.212l4.213-.574.626 6.883c.023.256.088.496.169.728h-3.007v2h4c.551 0 1 .449 1 1v1h-5v2h5v2h-5v2h5v2h-2c-1.302-.001-2.402.838-2.816 1.999zm17.816 6h-1-15v-5c0-.551.449-1 1-1h14c.551 0 1 .449 1 1zm2 0v-5c0-1.654-1.346-3-3-3h-.867l.375-3h.992c1.378 0 2.5-1.122 2.5-2.5s-1.122-2.5-2.5-2.5h-.617c-1.007 0-1.86.753-1.984 1.752l-.399 3.187-.398-3.187c-.125-.999-.978-1.752-1.985-1.752h-.617c-1.378 0-2.5 1.122-2.5 2.5s1.122 2.5 2.5 2.5h.992l.375 3h-5.867v-9c0-.352-.072-.686-.184-1h5.515c1.45 0 2.691-1.036 2.952-2.463l1.37-7.537h2.347c.379 0 .752-.025 1.123-.057l1.811 28.057zm-3.242-13 .125-1h.617c.276 0 .5.224.5.5s-.224.5-.5.5zm-4.516 0h-.742c-.276 0-.5-.224-.5-.5s.224-.5.5-.5h.617zm10.321-8.303-.457-7.088c1.168-.288 2.275-.728 3.296-1.309l1.257 6.912c-1.275.655-2.645 1.158-4.096 1.485zm13.437-16.822c0 5.895-2.922 11.138-7.504 14.261l-1.285-7.069c2.92-2.385 4.789-6.011 4.789-10.067v-.414l-.879-.879c-.723-.723-1.121-1.685-1.121-2.707 0-.551.449-1 1-1s1 .449 1 1v1h2v-1c0-1.302-.839-2.402-2-2.816v-.184c0-1.103.897-2 2-2s2 .897 2 2z" fill="#ce9a62" data-original="#000000" class=""></path><circle cx="28" cy="15" r="1" fill="#ce9a62" data-original="#000000" class=""></circle><circle cx="36" cy="15" r="1" fill="#ce9a62" data-original="#000000" class=""></circle></g></g></svg>