<svg xmlns="http://www.w3.org/2000/svg" version="1.1" xmlns:xlink="http://www.w3.org/1999/xlink" xmlns:svgjs="http://svgjs.com/svgjs" width="512" height="512" x="0" y="0" viewBox="0 0 505.102 505.102" style="enable-background:new 0 0 512 512" xml:space="preserve" class=""><g><g xmlns="http://www.w3.org/2000/svg"><path d="m391.79 363.014v-.217l-5.069-1.196c-.006-.001-.011-.003-.017-.004l-117.552-27.732v-23.822c20.336-15.175 33.798-35.103 39.344-58.342l11.946-1.704-1.059-14.925c-3.034 0-5.818-.171-8.401-.48.308-2.849.47-5.718.47-8.596v-17.146h4.295c14.457 0 26.219-11.762 26.219-26.219v-6.217c0-14.457-11.762-26.219-26.219-26.219h-4.295v-17.061c18.436-12.881 29.321-32.367 29.321-52.867 0-13.173-4.382-25.953-12.673-36.957l-11.98 9.026c6.315 8.382 9.654 18.041 9.654 27.931 0 16.73-9.317 32.141-25.563 42.323-1.418.742-13.219 6.736-28.559 8.935-20.911 2.998-38.459-2.17-52.16-15.358-26.066-25.09-50.425-14.558-54.626-12.442-8.654 3.421-16.535 11.057-22.789 18.803v-23.064c0-23.745 19.153-43.063 42.696-43.063h1.429l-7.412 12.377 12.869 7.706 14.02-23.412c11.65-16.029 32.881-25.978 55.488-25.978 16.861 0 32.825 5.335 44.953 15.021l9.361-11.72c-14.775-11.802-34.064-18.302-54.314-18.302-26.404 0-50.556 10.888-65.44 29.308h-10.954c-31.814 0-57.696 26.047-57.696 58.063v50.732h-3.791c-14.457 0-26.219 11.762-26.219 26.219v6.217c0 14.457 11.762 26.219 26.219 26.219h3.791v17.145c0 2.885.162 5.761.472 8.617-2.535.296-5.261.459-8.226.459l-1.059 14.925 11.763 1.678c5.558 23.316 19.084 43.301 39.527 58.498v23.764l-23.929 5.574-93.623 22.087c-.003.001-.006.002-.009.002l-5.202 1.227v.226c-27.804 8.912-46.791 34.601-46.791 64.24v65.715h438.705v-34.354h-15v19.354h-31.915v-99.025c19.161 8.11 31.915 26.885 31.915 48.31v17.028h15v-17.028c0-29.683-19.044-55.403-46.915-64.279zm-79.833-197.818h3.791c6.186 0 11.219 5.033 11.219 11.219v6.217c0 6.186-5.033 11.219-11.219 11.219h-3.791zm-195.042 196.498 19.963-4.71c-.014.286-.026.573-.026.861v38.842c0 5.611 2.718 10.92 7.271 14.2 3.012 2.169 6.611 3.296 10.243 3.296 1.859 0 3.728-.295 5.53-.897l36.913-12.33c.189 8.614 6.625 15.697 14.952 16.911v15.204h-94.847v-71.377zm100.782-28.851 1.567.335 1.567-.335c.698-.149 15.689-3.431 33.321-13.16v10.731 9.475 9.552l-13.653 4.561c-2.604-6.401-8.883-10.93-16.209-10.93h-10c-7.326 0-13.605 4.529-16.209 10.93l-13.528-4.519v-29.703c17.555 9.652 32.448 12.914 33.144 13.063zm65.738 22.631c1.057-.354 1.866.063 2.254.343.388.279 1.039.915 1.039 2.028v38.842c0 1.114-.651 1.749-1.039 2.028s-1.197.697-2.254.343l-41.583-13.89v-15.805zm-59.145 47.597h-10c-1.378 0-2.5-1.122-2.5-2.5v-40c0-1.378 1.122-2.5 2.5-2.5h10c1.378 0 2.5 1.122 2.5 2.5v40c0 1.378-1.122 2.5-2.5 2.5zm-27.562-33.707v15.805l-41.583 13.89c-1.059.354-1.866-.063-2.254-.343-.388-.279-1.039-.915-1.039-2.028v-38.842c0-1.114.651-1.749 1.039-2.028.282-.203.786-.479 1.446-.479.248 0 .519.039.808.136zm30.034 48.512c8.355-1.19 14.819-8.286 15.009-16.919l36.913 12.33c1.803.602 3.67.897 5.53.897 3.632 0 7.231-1.127 10.243-3.296 4.553-3.28 7.271-8.588 7.271-14.2v-38.842c0-.298-.012-.594-.027-.89l20.089 4.739v71.377h-95.028zm35.504-174.732c-6.502.927-13.184.589-19.577-.928-1.507-.358-3.002-.76-4.471-1.251l-18.866-6.301-18.866 6.301c-2.751.919-5.583 1.596-8.451 2.047-.516.081-1.033.145-1.551.21-4.661.592-9.399.585-14.046-.078l-20.516-2.927c5.71-3.651 10.258-7.829 14.403-11.636 7.865-7.226 13.548-12.447 24.121-12.447 5.83 0 10.382 1.417 13.918 4.33 6.368 5.248 15.609 5.247 21.976 0 3.536-2.914 8.089-4.33 13.918-4.33 10.573 0 16.256 5.221 24.121 12.447 4.144 3.807 8.692 7.985 14.402 11.636l-16.408 2.341zm-138.981-49.294c-6.186 0-11.219-5.033-11.219-11.219v-6.217c0-6.186 5.033-11.219 11.219-11.219h3.791v28.654h-3.791zm18.791-44.397c4.787-8.694 17.041-27.53 28.528-31.865l.47-.165.503-.285c.716-.384 17.757-9.179 37.511 9.835 17.083 16.444 39.631 23.126 65.209 19.324 8.732-1.298 16.392-3.608 22.154-5.745 0 0-.057 88.495-.164 90.015-7.178-3.322-12.39-8.102-17.76-13.035-8.776-8.063-17.852-16.4-34.269-16.4-9.321 0-17.213 2.609-23.458 7.754-.825.68-2.07.68-2.897 0-6.244-5.145-14.136-7.754-23.458-7.754-16.417 0-25.493 8.337-34.269 16.4-5.413 4.972-10.664 9.79-17.931 13.114-.11-1.544-.169-81.193-.169-81.193zm4.117 104.528 28.127 4.013c8.721 1.245 17.696.741 26.235-1.432 1.577-.401 3.141-.853 4.684-1.368l14.113-4.715 14.114 4.715c.017.006.035.01.052.016 7.717 2.573 15.949 3.739 24.076 3.395 4.253-.18 8.438-.845 12.645-1.445 4.952-.706 9.903-1.413 14.855-2.119 2.411-.344 4.823-.688 7.234-1.032-6.244 20.048-19.531 36.542-39.612 49.128-14.777 9.262-28.849 13.443-33.451 14.651-4.614-1.211-18.685-5.394-33.459-14.656-20.087-12.595-33.374-29.093-39.613-49.151zm-84.403 224.028v-48.688h-15v48.688h-31.79v-50.715c0-21.379 12.699-40.118 31.79-48.256v35.617h15v-39.955l24.369-5.749 15.756-3.717v82.838h234.875v-82.838l40 9.437v103.339h-315z" fill="#ce9a62" data-original="#000000" class=""></path><path d="m174.502 171.213h15v15h-15z" fill="#ce9a62" data-original="#000000" class=""></path><path d="m244.32 171.213h15v15h-15z" fill="#ce9a62" data-original="#000000" class=""></path><path d="m38.873 256.821h15v15h-15z" fill="#ce9a62" data-original="#000000" class=""></path><path d="m457.929 31.884h15v15h-15z" fill="#ce9a62" data-original="#000000" class=""></path><g><path d="m46.248 26.401h15v15h-15z" fill="#ce9a62" data-original="#000000" class=""></path><path d="m46.248 56.401h15v15h-15z" fill="#ce9a62" data-original="#000000" class=""></path><path d="m61.248 41.401h15v15h-15z" fill="#ce9a62" data-original="#000000" class=""></path><path d="m31.248 41.401h15v15h-15z" fill="#ce9a62" data-original="#000000" class=""></path></g><path d="m505.102 325.439-14.666-14.263c6.121-6.973 8.95-16.673 6.761-26.397-3.634-16.138-19.72-26.313-35.856-22.679-5.128 1.154-9.651 3.57-13.323 6.841l-10.881-48.333 6.558 1.476c2.025.456 4.048.674 6.042.674 12.573 0 23.951-8.695 26.826-21.464l13.7-60.857c2.647-11.757.557-23.842-5.886-34.028-6.394-10.108-16.313-17.146-27.956-19.838l-7.47-2.241-21.246 94.379-19.479-86.531-1.771-7.847-7.465 2.239c-11.643 2.693-21.563 9.73-27.956 19.838-6.442 10.186-8.533 22.271-5.886 34.028l13.7 60.857c2.875 12.769 14.252 21.463 26.826 21.463 1.993 0 4.019-.219 6.043-.674l6.557-1.476-10.881 48.333c-3.672-3.271-8.195-5.687-13.323-6.841-16.131-3.633-32.222 6.541-35.856 22.679-2.189 9.724.64 19.424 6.761 26.397l-14.666 14.263 10.458 10.753 16.933-16.468c1.036.357 2.1.665 3.193.911 2.209.498 4.417.736 6.592.736 13.716 0 26.128-9.486 29.264-23.415.407-1.806.631-3.611.703-5.398l10.254-45.549 10.254 45.549c.072 1.787.296 3.592.703 5.398 3.136 13.93 15.547 23.415 29.264 23.415 2.175 0 4.384-.239 6.592-.736 1.094-.246 2.157-.554 3.193-.911l16.933 16.468zm-45.136-221.737c4.761 2.425 8.803 6.092 11.734 10.727 4.301 6.799 5.696 14.866 3.929 22.715l-13.7 60.856c-1.513 6.725-8.218 10.963-14.94 9.45l-9.878-2.224zm-51.545 103.749c-6.723 1.512-13.426-2.725-14.94-9.45l-13.7-60.857c-1.767-7.849-.372-15.916 3.929-22.715 2.931-4.634 6.973-8.301 11.734-10.727l22.855 101.525zm-6.306 87.211c-.88 3.909-3.229 7.241-6.616 9.383-3.386 2.142-7.402 2.836-11.313 1.957-3.909-.88-7.241-3.229-9.383-6.616-2.142-3.386-2.836-7.403-1.957-11.313 1.816-8.069 9.856-13.157 17.928-11.34 3.909.88 7.241 3.229 9.383 6.616 2.143 3.387 2.838 7.404 1.958 11.313zm69.109 11.34c-3.91.879-7.927.185-11.313-1.957s-5.736-5.474-6.616-9.383-.185-7.927 1.957-11.313 5.474-5.736 9.383-6.616c1.105-.249 2.208-.368 3.296-.368 6.858 0 13.064 4.743 14.632 11.707.88 3.909.185 7.927-1.957 11.313-2.142 3.387-5.474 5.737-9.382 6.617z" fill="#ce9a62" data-original="#000000" class=""></path></g></g></svg>