<svg xmlns="http://www.w3.org/2000/svg" version="1.1" xmlns:xlink="http://www.w3.org/1999/xlink" xmlns:svgjs="http://svgjs.com/svgjs" width="512" height="512" x="0" y="0" viewBox="0 0 511.788 511.788" style="enable-background:new 0 0 512 512" xml:space="preserve" class=""><g><g xmlns="http://www.w3.org/2000/svg"><path d="m494.717 176.021-24.652 24.653-18.848-18.848 24.653-24.653c3.905-3.905 3.905-10.237 0-14.142s-10.237-3.905-14.142 0l-24.652 24.653-18.848-18.848 24.653-24.653c3.905-3.905 3.905-10.237 0-14.142s-10.237-3.905-14.142 0l-24.652 24.653-18.848-18.848 24.653-24.653c3.905-3.905 3.905-10.237 0-14.143-3.905-3.905-10.237-3.905-14.143 0l-24.653 24.653-18.848-18.848 24.653-24.653c3.905-3.905 3.905-10.237 0-14.143-3.905-3.905-10.237-3.905-14.143 0l-102.688 102.686c-9.875 9.875-15.315 23.527-14.942 37.479-.025 14.391-4.038 28.159-12.267 42.091-6.756 11.453-16.252 23.044-30.792 37.583l-98.249 98.25c-16.75 16.75-16.752 44-.007 60.745l6.034 6.034-7.925 7.926c-18.759 18.759-49.283 18.759-68.042-.001-18.546-18.545-18.545-49.497 0-68.042l99.269-99.269c26.159-26.16 26.16-69.815 0-95.974-26.159-26.16-69.815-26.16-95.975 0l-34.245 34.245c-3.905 3.905-3.905 10.237 0 14.143 3.905 3.904 10.237 3.904 14.143 0l34.245-34.246c18.45-18.45 49.241-18.449 67.69 0 18.662 18.663 18.662 49.028 0 67.69l-99.269 99.269c-26.256 26.256-26.255 70.071 0 96.327 26.217 26.216 70.11 26.216 96.327 0l7.925-7.926 6.034 6.034c16.563 16.563 44.185 16.554 60.746-.007l3.106-3.107c3.905-3.905 3.904-10.237-.001-14.142-3.905-3.904-10.237-3.905-14.142.001l-3.106 3.106c-8.85 8.851-23.608 8.86-32.46.007l-26.211-26.211c-8.948-8.947-8.945-23.509.007-32.46l98.25-98.25c10.624-10.624 24.075-24.949 33.873-41.56 10.123-17.139 15.043-34.277 15.043-52.396 0-8.709 2.84-16.954 9.084-23.198l6.709-6.709c1.481 10.859 6.554 21.091 14.304 28.841l7.78 7.78c-10.744 17.437-7.233 40.888 7.998 54.508 13.947 12.502 35.139 14.45 51.115 4.605l7.78 7.78c7.747 7.747 17.982 12.828 28.84 14.304l-6.667 6.667c-6.244 6.244-14.515 9.126-23.241 9.126-39.582 0-68.548 23.51-93.955 48.917l-33.368 33.368c-3.905 3.905-3.905 10.237 0 14.143 3.905 3.905 10.238 3.905 14.142 0l33.369-33.368c22.282-22.282 47.328-42.908 79.459-43.058 13.961.525 27.896-5.144 37.737-14.985l102.645-102.642c3.905-3.905 3.905-10.237 0-14.142s-10.238-3.905-14.143 0zm-144.399 16.938c2.027 1.064 3.936 2.478 5.553 4.095 8.838 8.837 8.833 23.629-.001 32.464-8.351 8.35-21.583 8.904-30.588 1.676-10.506-8.448-11.421-24.606-1.881-34.145 7.014-7.016 18.127-8.711 26.917-4.09zm76.867 50.59c-11.74 11.742-31.403 11.74-43.144 0l-7.788-7.788c10.183-16.586 7.67-38.65-5.941-52.537-13.847-14.127-36.306-16.906-53.156-6.559l-7.788-7.789c-11.736-11.736-11.723-31.421 0-43.144l28.734-28.735 117.818 117.817z" fill="#ce9a62" data-original="#000000"></path><path d="m209.708 413.258c3.025 4.539 9.327 5.77 13.86 2.76s5.797-9.347 2.77-13.87c-3.031-4.53-9.338-5.777-13.87-2.76-4.564 3.037-5.739 9.319-2.76 13.87z" fill="#ce9a62" data-original="#000000"></path></g></g></svg>