<svg xmlns="http://www.w3.org/2000/svg" version="1.1" xmlns:xlink="http://www.w3.org/1999/xlink" xmlns:svgjs="http://svgjs.com/svgjs" width="512" height="512" x="0" y="0" viewBox="0 0 512 512" style="enable-background:new 0 0 512 512" xml:space="preserve" class=""><g><g xmlns="http://www.w3.org/2000/svg" id="_OUTLINE" data-name="/ OUTLINE"><path d="M144,128a16.01833,16.01833,0,0,0,16-16V96a16.01833,16.01833,0,0,0-16-16H128a16.01833,16.01833,0,0,0-16,16v16a16.01833,16.01833,0,0,0,16,16ZM128,96h16l.01025,15.99951L144,112H128Z" fill="#ce9a62" data-original="#000000" class=""></path><path d="M192,128h16a16.01833,16.01833,0,0,0,16-16V96a16.01833,16.01833,0,0,0-16-16H192a16.01833,16.01833,0,0,0-16,16v16A16.01833,16.01833,0,0,0,192,128Zm0-32h16l.01025,15.99951L208,112H192Z" fill="#ce9a62" data-original="#000000" class=""></path><path d="M256,128h16a16.01833,16.01833,0,0,0,16-16V96a16.01833,16.01833,0,0,0-16-16H256a16.01833,16.01833,0,0,0-16,16v16A16.01833,16.01833,0,0,0,256,128Zm0-32h16l.01025,15.99951L272,112H256Z" fill="#ce9a62" data-original="#000000" class=""></path><path d="M320,144V40a24.02687,24.02687,0,0,0-24-24H104A24.02687,24.02687,0,0,0,80,40V219.314L39.02979,260.28418A23.843,23.843,0,0,0,32,277.25488v68.11768a23.84457,23.84457,0,0,1-7.0293,16.9707L10.34326,376.9707l11.31348,11.31348,14.62744-14.62744A39.73644,39.73644,0,0,0,48,345.37256V277.25488a7.9483,7.9483,0,0,1,2.34326-5.65722l43.31348-43.31348a14.62758,14.62758,0,1,1,20.68652,20.68652L87.02979,276.28418A23.843,23.843,0,0,0,80,293.25488V392a24.02718,24.02718,0,0,0,24,24h44.68652l-8.9707,8.9707A23.84457,23.84457,0,0,1,122.74512,432H109.25488A39.73644,39.73644,0,0,0,80.9707,443.71582L34.34326,490.34326l11.31348,11.31348L92.28418,455.0293A23.84457,23.84457,0,0,1,109.25488,448h13.49024a39.73644,39.73644,0,0,0,28.28418-11.71582L162.61652,424.697A175.85284,175.85284,0,0,0,304,496h16c97.04688,0,176-78.95312,176-176S417.04688,144,320,144ZM253.7536,32l-2.48505,9.93994A7.98824,7.98824,0,0,1,243.50781,48H156.49219a7.98824,7.98824,0,0,1-7.76074-6.06006L146.2464,32ZM104,208a30.78062,30.78062,0,0,0-8,1.05829V40a8.00917,8.00917,0,0,1,8-8h25.75372L133.209,45.8208A23.96534,23.96534,0,0,0,156.49219,64h87.01562A23.96534,23.96534,0,0,0,266.791,45.8208L270.24634,32H296a8.00917,8.00917,0,0,1,8,8V144H128v75.60663a31.12159,31.12159,0,0,0-2.34326-2.63593A30.42657,30.42657,0,0,0,104,208Zm0,192a8.00917,8.00917,0,0,1-8-8V293.25488a7.9483,7.9483,0,0,1,2.34326-5.65722l27.31348-27.31348A31.12,31.12,0,0,0,128,257.64825V320a174.92924,174.92924,0,0,0,19.25531,80Zm216,80H304c-88.22412,0-160-71.77588-160-160V160H320c88.22412,0,160,71.77588,160,160S408.22412,480,320,480Z" fill="#ce9a62" data-original="#000000" class=""></path><rect x="376" y="24" width="16" height="24" fill="#ce9a62" data-original="#000000" class=""></rect><rect x="352" y="48" width="24" height="16" fill="#ce9a62" data-original="#000000" class=""></rect><rect x="376" y="64" width="16" height="24" fill="#ce9a62" data-original="#000000" class=""></rect><rect x="392" y="48" width="24" height="16" fill="#ce9a62" data-original="#000000" class=""></rect><rect x="448" y="88" width="16" height="24" fill="#ce9a62" data-original="#000000" class=""></rect><rect x="424" y="112" width="24" height="16" fill="#ce9a62" data-original="#000000" class=""></rect><rect x="448" y="128" width="16" height="24" fill="#ce9a62" data-original="#000000" class=""></rect><rect x="464" y="112" width="24" height="16" fill="#ce9a62" data-original="#000000" class=""></rect><path d="M400,208H208a24.02687,24.02687,0,0,0-24,24V408h16V384h32.45514a71.99977,71.99977,0,1,0,143.09027,0H408v24h16V232A24.02687,24.02687,0,0,0,400,208Zm8,136v24H371.88208a71.4,71.4,0,0,0-5.28833-11.604l-5.19238-9.11133L304,404.68652l-18.34326-18.34326-11.31348,11.31348L304,427.31348l53.10742-53.10743a55.97387,55.97387,0,1,1-25.11328-30.71923l8.01172-13.84961A72.01111,72.01111,0,0,0,236.1283,368H200V312a8.00917,8.00917,0,0,1,8-8H400a8.00917,8.00917,0,0,1,8,8ZM232,288V264a8.00917,8.00917,0,0,1,8-8h32a8.00917,8.00917,0,0,1,8,8v24Zm96,0V264a8.00917,8.00917,0,0,1,8-8h32a8.00917,8.00917,0,0,1,8,8v24Zm80,1.3761A23.88532,23.88532,0,0,0,400,288h-8V264a24.0275,24.0275,0,0,0-24-24H336a24.0275,24.0275,0,0,0-24,24v24H296V264a24.0275,24.0275,0,0,0-24-24H240a24.0275,24.0275,0,0,0-24,24v24h-8a23.88505,23.88505,0,0,0-8,1.3761V232a8.00917,8.00917,0,0,1,8-8H400a8.00917,8.00917,0,0,1,8,8Z" fill="#ce9a62" data-original="#000000" class=""></path></g></g></svg>