<svg xmlns="http://www.w3.org/2000/svg" version="1.1" xmlns:xlink="http://www.w3.org/1999/xlink" xmlns:svgjs="http://svgjs.com/svgjs" width="512" height="512" x="0" y="0" viewBox="0 0 512 512" style="enable-background:new 0 0 512 512" xml:space="preserve" class=""><g><g xmlns="http://www.w3.org/2000/svg" id="Layer_x0020_1"><g id="_346990664"><g><g><path d="m458 461h-395c-4 0-7-3-7-7v-297c0-4 3-7 7-7s7 3 7 7v290h381v-290c0-4 3-7 7-7s7 3 7 7v297c0 4-3 7-7 7z" fill="#ce9a62" data-original="#000000" class=""></path></g><g><path d="m505 511h-489c-4 0-7-3-7-7v-50c0-4 3-7 7-7h47c4 0 7 3 7 7s-3 7-7 7h-40v36h475v-36h-40c-4 0-7-3-7-7s3-7 7-7h47c4 0 7 3 7 7v50c0 4-3 7-7 7z" fill="#ce9a62" data-original="#000000" class=""></path></g><g><path d="m450 158h-153c-4 0-7-3-7-7s3-7 7-7h153c14 0 27-12 27-26v-23l-151 1c-4 0-7-3-7-7s3-7 7-7l158-1c2 0 4 1 5 2s2 3 2 5v30c0 22-19 40-41 40zm-256 0h-139c-15 0-28-4-38-12-11-8-17-21-17-35v-20c0-4 3-7 7-7l158-1c4 0 7 3 7 7s-3 7-7 7l-151 1v13c0 24 22 33 41 33h139c4 0 7 3 7 7s-3 7-7 7z" fill="#ce9a62" data-original="#000000" class=""></path></g><g><path d="m450 216h-387c-4 0-7-3-7-7s3-7 7-7h387c4 0 7 3 7 7s-3 7-7 7z" fill="#ce9a62" data-original="#000000" class=""></path></g><g><path d="m270 145c-13 0-23-9-23-22 0-6 3-11 6-14l-7-14-8 14c3 4 5 9 5 14 0 12-10 22-22 22s-22-10-22-22 10-22 22-22c2 0 3 0 5 1l11-21-22-39c-2-3-1-7 3-9 3-2 7-1 9 2l19 32 18-32c2-3 6-4 10-2 3 2 4 6 2 9l-22 39 11 20h5c12 0 22 10 22 22s-10 22-22 22zm-4-29c-3 2-5 5-5 7 0 6 5 8 9 8s8-3 8-8c0-4-4-8-8-8-2 0-3 1-4 1zm-45-1c-4 0-8 4-8 8 0 5 4 8 8 8s8-3 8-8c0-2-1-5-3-7-1 0-1 0-1 0-2-1-3-1-4-1z" fill="#ce9a62" data-original="#000000" class=""></path></g><g><path d="m245 177c-23 0-45-9-61-26-17-17-26-39-26-62 0-48 39-88 87-88 24 0 46 9 62 26 17 16 26 38 26 62 0 48-39 88-88 88zm0-162c-40 0-73 33-73 74 0 40 33 74 73 74 41 0 74-33 74-74s-33-74-74-74z" fill="#ce9a62" data-original="#000000" class=""></path></g><g><path d="m323 461h-126c-4 0-7-3-7-7v-173c0-4 3-7 7-7h126c4 0 7 3 7 7v173c0 4-3 7-7 7zm-119-14h112v-159h-112z" fill="#ce9a62" data-original="#000000" class=""></path></g><g><path d="m166 372h-71c-4 0-7-3-7-7v-108c0-4 3-7 7-7h71c4 0 7 3 7 7v108c0 4-3 7-7 7zm-64-14h57v-94h-57z" fill="#ce9a62" data-original="#000000" class=""></path></g><g><path d="m426 372h-71c-4 0-7-3-7-7v-108c0-4 3-7 7-7h71c4 0 7 3 7 7v108c0 4-3 7-7 7zm-64-14h57v-94h-57z" fill="#ce9a62" data-original="#000000" class=""></path></g><g><path d="m338 486h-155c-4 0-7-3-7-7v-25c0-4 3-7 7-7s7 3 7 7v18h141v-18c0-4 3-7 7-7s7 3 7 7v25c0 4-3 7-7 7z" fill="#ce9a62" data-original="#000000" class=""></path></g><g><path d="m297 390c-4 0-7-3-7-7v-30c0-4 3-7 7-7s7 3 7 7v30c0 4-3 7-7 7z" fill="#ce9a62" data-original="#000000" class=""></path></g></g></g></g></g></svg>