<svg xmlns="http://www.w3.org/2000/svg" version="1.1" xmlns:xlink="http://www.w3.org/1999/xlink" xmlns:svgjs="http://svgjs.com/svgjs" width="512" height="512" x="0" y="0" viewBox="0 0 64 64" style="enable-background:new 0 0 512 512" xml:space="preserve" class=""><g><path xmlns="http://www.w3.org/2000/svg" d="M32,2A30,30,0,1,0,62,32,30.034,30.034,0,0,0,32,2ZM52.48,51.066l-2.773-2.773-1.414,1.414,2.773,2.773a27.93,27.93,0,0,1-38.132,0l2.773-2.773-1.414-1.414L11.52,51.066a27.93,27.93,0,0,1,0-38.132l2.773,2.773,1.414-1.414L12.934,11.52a27.93,27.93,0,0,1,38.132,0l-2.773,2.773,1.414,1.414,2.773-2.773a27.93,27.93,0,0,1,0,38.132Z" fill="#ce9a62" data-original="#000000" class=""></path><path xmlns="http://www.w3.org/2000/svg" d="M45,17H39a5,5,0,0,0,0,10h6a5,5,0,0,0,0-10Zm0,8H39a3,3,0,0,1,0-6h6a3,3,0,0,1,0,6Z" fill="#ce9a62" data-original="#000000" class=""></path><path xmlns="http://www.w3.org/2000/svg" d="M25,27a5,5,0,0,0,0-10H19a5,5,0,0,0,0,10Zm-9-5a3,3,0,0,1,3-3h6a3,3,0,0,1,0,6H19A3,3,0,0,1,16,22Z" fill="#ce9a62" data-original="#000000" class=""></path><path xmlns="http://www.w3.org/2000/svg" d="M46,43c0-2.841-4.056-4-14-4s-14,1.159-14,4c0,3.151,6.46,7,14,7S46,46.151,46,43ZM20,43c0-.2.337-2,12-2s12,1.8,12,2c0,1.491-5.067,5-12,5S20,44.491,20,43Z" fill="#ce9a62" data-original="#000000" class=""></path><path xmlns="http://www.w3.org/2000/svg" d="M32,56v2a28.457,28.457,0,0,0,14.555-4.168l-1.11-1.664A26.78,26.78,0,0,1,32,56Z" fill="#ce9a62" data-original="#000000" class=""></path><path xmlns="http://www.w3.org/2000/svg" d="M32,8V6a28.457,28.457,0,0,0-14.555,4.168l1.11,1.664A26.78,26.78,0,0,1,32,8Z" fill="#ce9a62" data-original="#000000" class=""></path><path xmlns="http://www.w3.org/2000/svg" d="M52.168,45.446l1.664,1.109C54,46.3,58,40.231,58,34H56C56,39.616,52.206,45.388,52.168,45.446Z" fill="#ce9a62" data-original="#000000" class=""></path><path xmlns="http://www.w3.org/2000/svg" d="M6,34c0,6.231,4,12.3,4.168,12.555l1.664-1.11C11.794,45.388,8,39.632,8,34Z" fill="#ce9a62" data-original="#000000" class=""></path><rect xmlns="http://www.w3.org/2000/svg" x="56" y="30" width="2" height="2" fill="#ce9a62" data-original="#000000" class=""></rect><rect xmlns="http://www.w3.org/2000/svg" x="17" y="29" width="7" height="2" fill="#ce9a62" data-original="#000000" class=""></rect><rect xmlns="http://www.w3.org/2000/svg" x="40" y="29" width="7" height="2" fill="#ce9a62" data-original="#000000" class=""></rect><path xmlns="http://www.w3.org/2000/svg" d="M40.447,7.105A10.975,10.975,0,0,0,36,6l0,2a9.049,9.049,0,0,1,3.556.895Z" fill="#ce9a62" data-original="#000000" class=""></path><polygon xmlns="http://www.w3.org/2000/svg" points="28 33.465 28 31 26 31 26 34.535 29.697 37 34.303 37 38 34.535 38 31 36 31 36 33.465 33.697 35 30.303 35 28 33.465" fill="#ce9a62" data-original="#000000" class=""></polygon></g></svg>