<svg xmlns="http://www.w3.org/2000/svg" version="1.1" xmlns:xlink="http://www.w3.org/1999/xlink" xmlns:svgjs="http://svgjs.com/svgjs" width="512" height="512" x="0" y="0" viewBox="0 0 64 64" style="enable-background:new 0 0 512 512" xml:space="preserve" class=""><g><path xmlns="http://www.w3.org/2000/svg" d="m55 30v-1c0-1.7-1.3-3-3-3s-3 1.3-3 3v1c-1.7 0-3 1.3-3 3v1.2l-5.9-2.4c2.4-1.4 3.9-4 3.9-6.8v-1.3l2.7-1.3c.8-.4 1.3-1.2 1.3-2.2v-2.7c0-1.3-1.1-2.4-2.4-2.4-.5 0-1 .2-1.4.5l.1-.4c1.1-4.4-1.3-8.9-5.5-10.6l-6.8-2.7-6.8 2.6c-4.2 1.6-6.6 6.2-5.5 10.6l.1.4c-.4-.3-.9-.5-1.4-.5-1.3 0-2.4 1.1-2.4 2.4v2.7c0 .9.5 1.8 1.3 2.2l2.7 1.3v1.4c0 2.8 1.5 5.4 3.9 6.8l-9.1 3.7c-4.1 1.7-6.8 5.7-6.8 10.2v16.3h44c1.7 0 3-1.3 3-3v-1c1.7 0 3-1.3 3-3v-3h-1v-16h1v-3c0-1.7-1.3-3-3-3zm-4-1c0-.6.4-1 1-1s1 .4 1 1v1h-2zm-3 4c0-.6.4-1 1-1h6c.6 0 1 .4 1 1v1h-8zm7 12.6-6 6v-3.2l6-6zm-5.8 14.4h-33.8l6.3-17h20.6l3.7 10.2v1.8c0 1.7 1.3 3 3 3v1c0 .3.1.7.2 1zm-21.5-26.1c2.7 1.5 5.9 1.5 8.6 0l1.6-.9 2.9 1.2c-5.4 3.1-12.1 3.1-17.6 0l2.9-1.2zm24.9 2.1-3.6 3.6v-3.6zm-5.6 14.1-3-8.2v-6.3l3 1.2zm-25-9.1v-5.2c6.2 3.7 13.8 3.7 20 0v5.2zm33-1.4-6 6v-3.2l6-6zm-9-22.2v2.7c0 .2-.1.3-.2.4l-1.8.9v-3l1.3-1.3c.2-.2.5-.1.6 0s.1.2.1.3zm-20-11 6-2.3 6 2.3c3 1.1 4.8 4.2 4.4 7.3 0 0-.1 0-.1-.1l-2.3-1.2c-2-1-4.4-.7-5.9.9-1.2 1.2-3.2 1.2-4.4 0-1.6-1.6-4-1.9-5.9-.9l-2.3 1.2s-.1 0-.1.1c-.2-3.1 1.6-6.2 4.6-7.3zm-7.8 14.1c-.1-.1-.2-.2-.2-.4v-2.7c0-.2.2-.4.5-.4.1 0 .2 0 .2.1l1.3 1.3v3zm3.8 4.5v-8.6c0-.4.2-.7.5-.9l2.3-1.2c1.2-.6 2.7-.4 3.6.6 2 2 5.2 2 7.2 0 .9-1 2.4-1.2 3.6-.6l2.3 1.2c.3.2.5.5.5.9v8.6c0 2.2-1.2 4.2-3.1 5.3l-3.5 1.9c-2.1 1.1-4.6 1.1-6.7 0l-3.5-1.9c-2-1.1-3.2-3.1-3.2-5.3zm-6.4 12.4 4.4-1.8v6.3l-4.1 11.1h-5.9v-7.3c0-3.7 2.2-6.9 5.6-8.3zm-5.6 17.6h5.1l-1.8 5h-3.3zm43 4c0 .6-.4 1-1 1s-1-.4-1-1v-1h2zm3-4c0 .6-.4 1-1 1h-6c-.6 0-1-.4-1-1v-1h8zm-4.6-3 3.6-3.6v3.6z" fill="#ce9a62" data-original="#000000" class=""></path><path xmlns="http://www.w3.org/2000/svg" d="m36.5 51h-1.6c-.1-.4-.3-.8-.6-1.2l-1-1.2 2.5-3-1.5-1.3-2.3 2.7-2.2-2.7-1.5 1.3 2.5 3-1 1.2c-.3.3-.5.8-.6 1.2h-1.6c-1.9 0-3.5 1.6-3.5 3.5s1.6 3.5 3.5 3.5 3.5-1.6 3.5-3.5v-2.8c0-.2.1-.5.2-.6l.8-.9.8.9c.1.2.2.4.2.6v2.8c0 1.9 1.6 3.5 3.5 3.5s3.5-1.6 3.5-3.5-1.7-3.5-3.6-3.5zm-7.5 3.5c0 .8-.7 1.5-1.5 1.5s-1.5-.7-1.5-1.5.7-1.5 1.5-1.5h1.5zm7.5 1.5c-.8 0-1.5-.7-1.5-1.5v-1.5h1.5c.8 0 1.5.7 1.5 1.5s-.7 1.5-1.5 1.5z" fill="#ce9a62" data-original="#000000" class=""></path></g></svg>