<svg xmlns="http://www.w3.org/2000/svg" version="1.1" xmlns:xlink="http://www.w3.org/1999/xlink" xmlns:svgjs="http://svgjs.com/svgjs" width="512" height="512" x="0" y="0" viewBox="0 0 512.001 512.001" style="enable-background:new 0 0 512 512" xml:space="preserve" class=""><g>
<g xmlns="http://www.w3.org/2000/svg">
	<g>
		<rect x="170.536" y="281.787" width="49.092" height="14.728" fill="#ce9a62" data-original="#000000" class=""></rect>
	</g>
</g>
<g xmlns="http://www.w3.org/2000/svg">
	<g>
		<rect x="292.284" y="281.787" width="49.092" height="14.728" fill="#ce9a62" data-original="#000000" class=""></rect>
	</g>
</g>
<g xmlns="http://www.w3.org/2000/svg">
	<g>
		<rect x="241.228" y="380.952" width="29.455" height="14.728" fill="#ce9a62" data-original="#000000" class=""></rect>
	</g>
</g>
<g xmlns="http://www.w3.org/2000/svg">
	<g>
		<polygon points="257.426,341.679 257.426,291.114 242.698,291.114 242.698,356.406 278.535,356.406 278.535,341.679   " fill="#ce9a62" data-original="#000000" class=""></polygon>
	</g>
</g>
<g xmlns="http://www.w3.org/2000/svg">
	<g>
		<path d="M46.331,8.837c-22.196,0-40.255,18.059-40.255,40.255s18.059,40.255,40.255,40.255s40.255-18.059,40.255-40.255    S68.527,8.837,46.331,8.837z M46.331,74.62c-14.076,0-25.528-11.452-25.528-25.528s11.452-25.528,25.528-25.528    s25.528,11.452,25.528,25.528S60.406,74.62,46.331,74.62z" fill="#ce9a62" data-original="#000000" class=""></path>
	</g>
</g>
<g xmlns="http://www.w3.org/2000/svg">
	<g>
		<path d="M43.876,102.602c-12.182,0-22.091,9.91-22.091,22.091s9.91,22.091,22.091,22.091s22.091-9.91,22.091-22.091    S56.058,102.602,43.876,102.602z M43.876,132.057c-4.061,0-7.364-3.303-7.364-7.364s3.303-7.364,7.364-7.364    s7.364,3.303,7.364,7.364S47.937,132.057,43.876,132.057z" fill="#ce9a62" data-original="#000000" class=""></path>
	</g>
</g>
<g xmlns="http://www.w3.org/2000/svg">
	<g>
		<path d="M478.83,8.837c-15.43,0-27.982,12.553-27.982,27.982S463.4,64.801,478.83,64.801s27.982-12.553,27.982-27.982    S494.259,8.837,478.83,8.837z M478.83,50.074c-7.309,0-13.255-5.946-13.255-13.255s5.946-13.255,13.255-13.255    c7.309,0,13.255,5.946,13.255,13.255S486.138,50.074,478.83,50.074z" fill="#ce9a62" data-original="#000000" class=""></path>
	</g>
</g>
<g xmlns="http://www.w3.org/2000/svg">
	<g>
		<path d="M431.756,95.725c1.558-4.961,2.401-10.237,2.401-15.705c0-26.171-19.239-47.927-44.315-51.882    C384.029,11.762,368.388,0,350.045,0c-19.76,0-36.387,13.648-40.964,32.013c-5.232,0.808-10.196,2.43-14.774,4.717    c-10.65-12.04-25.982-19.056-42.282-19.056c-21.228,0-39.75,11.782-49.389,29.147c-11.432-8.623-25.492-13.437-39.958-13.437    c-36.544,0-66.274,29.73-66.274,66.274c0,8.038,1.429,15.832,4.213,23.245c-12.334,13.027-19.922,30.589-19.922,49.902    c0,34.668,24.413,63.725,56.946,70.926v94.514c0,65.237,53.074,118.311,118.311,118.311s118.311-53.074,118.311-118.311V221.29    c16.078-3.101,31.429-10.863,43.854-23.288C445.203,170.915,450.606,128.611,431.756,95.725z M359.537,338.243    c0,57.116-46.467,103.584-103.584,103.584c-57.116,0-103.584-46.467-103.584-103.584v-92.808c0.328,0.004,0.653,0.025,0.982,0.025    c26.647,0,50.927-14.545,63.624-37.567c4.032,0.808,8.2,1.239,12.468,1.239c9.23,0,18.278-2.013,26.572-5.855    c1.839,3.04,4.053,5.893,6.639,8.48c8.71,8.709,20.149,13.064,31.59,13.064c9.934,0,19.865-3.289,28.012-9.857    c11.319,5.248,23.563,7.873,35.808,7.873c0.491,0,0.982-0.026,1.473-0.035V338.243z M407.703,187.588    c-27.371,27.372-71.907,27.372-99.279,0c-6.168-6.168-11.068-13.301-14.565-21.201l-13.468,5.961    c4.235,9.567,10.164,18.198,17.619,25.654c3.206,3.206,6.61,6.092,10.167,8.677c-11.299,5.929-25.619,4.15-35.107-5.336    c-8.452-8.452-11.071-21.096-6.674-32.212l-13.695-5.419c-3.325,8.403-3.956,17.389-2.134,25.853    c-6.562,3.175-13.768,4.838-21.125,4.838c-26.798,0-48.601-21.803-48.601-48.601c0-26.798,21.803-48.601,48.601-48.601V82.474    c-34.919,0-63.328,28.409-63.328,63.328c0,25.361,14.991,47.275,36.571,57.379c-10.445,16.959-29.03,27.549-49.334,27.549    c-31.942,0-57.928-25.986-57.928-57.928s25.986-57.928,57.928-57.928v-14.728c-15.017,0-28.986,4.58-40.58,12.416    c-1.079-4.182-1.639-8.496-1.639-12.907c0-28.423,23.123-51.546,51.546-51.546c12.89,0,24.934,4.649,34.387,13.158    c-0.967,4.134-1.495,8.436-1.495,12.861h14.728c0-23.009,18.719-41.728,41.728-41.728c11.475,0,22.297,4.713,30.105,12.851    c-9.76,9.224-15.868,22.274-15.868,36.732h14.728c0-19.76,16.077-35.837,35.837-35.837s35.837,16.077,35.837,35.837h14.728    c0-25.263-18.622-46.258-42.862-49.978c4.064-10.115,13.966-17.277,25.516-17.277c15.159,0,27.491,12.333,27.491,27.491    c0,4.515-1.056,8.812-3.139,12.773l13.034,6.855c2.926-5.564,4.557-11.795,4.786-18.107c15.703,4.592,27.211,19.112,27.211,36.28    c0,20.843-16.957,37.801-37.801,37.801s-37.801-16.957-37.801-37.801H329.1c0,28.964,23.564,52.528,52.528,52.528    c16.948,0,32.039-8.077,41.65-20.573C433.402,137.534,427.709,167.581,407.703,187.588z" fill="#ce9a62" data-original="#000000" class=""></path>
	</g>
</g>
<g xmlns="http://www.w3.org/2000/svg">
	<g>
		<path d="M429.002,213.208l-5.573,4.361c-15.801,12.364-18.943,34.768-7.156,51.002l33.32,45.893l-2.142,11.245    c-20.194,0.564-37.932,14.037-43.612,34.024l-7.781,27.496c-7.571,25.888-4.53,54.011,8.301,77.665l-11.783,43.233l14.21,3.872    l13.389-49.126l-1.556-2.668c-12.089-20.723-15.16-45.815-8.407-68.905l7.796-27.55c3.536-12.441,13.895-21.202,26.137-22.991    l-14.503,60.568l14.323,3.43l15.167-63.347l0.312,0.036l5.807-30.483l-37.06-51.046c-5.664-7.8-5.611-17.961-0.537-25.541    l64.622,76.131v25.779l-46.181,171.864l14.223,3.822l46.685-173.742v-33.131L429.002,213.208z" fill="#ce9a62" data-original="#000000" class=""></path>
	</g>
</g>
<g xmlns="http://www.w3.org/2000/svg">
	<g>
		<path d="M115.962,387.291l-7.801-27.566c-5.678-19.981-23.412-33.454-43.61-34.016l-2.142-11.245l33.321-45.893    c11.786-16.236,8.643-38.639-7.156-51.003L83,213.207L4.998,305.102v33.142l47.225,173.752l14.212-3.864l-46.71-171.854V310.51    l64.622-76.131c5.074,7.579,5.127,17.74-0.536,25.541l-37.06,51.046l5.807,30.483l0.312-0.036l15.167,63.347l14.323-3.43    l-14.502-60.567c12.245,1.79,22.601,10.546,26.133,22.981l7.817,27.62c6.734,23.028,3.663,48.12-8.426,68.843l-1.555,2.668    l13.389,49.126l14.209-3.872l-11.783-43.233C120.475,441.24,123.516,413.12,115.962,387.291z" fill="#ce9a62" data-original="#000000" class=""></path>
	</g>
</g>
<g xmlns="http://www.w3.org/2000/svg">
	<g>
		<path d="M91.982,410.796l-14.137,4.129c1.692,5.794,0.918,12.108-2.123,17.323l-8.74,14.987l12.722,7.42l8.74-14.988    C93.514,430.976,94.803,420.453,91.982,410.796z" fill="#ce9a62" data-original="#000000" class=""></path>
	</g>
</g>
<g xmlns="http://www.w3.org/2000/svg">
	<g>
		<path d="M436.205,431.907c-3.049-5.223-3.82-11.548-2.119-17.353l-14.132-4.146c-2.837,9.674-1.551,20.216,3.531,28.923    l8.751,14.994l12.72-7.424L436.205,431.907z" fill="#ce9a62" data-original="#000000" class=""></path>
	</g>
</g>
<g xmlns="http://www.w3.org/2000/svg">
	<g>
		<path d="M124.878,172.803H110.15c0,23.821,19.38,43.201,43.201,43.201v-14.728C137.65,201.276,124.878,188.504,124.878,172.803z" fill="#ce9a62" data-original="#000000" class=""></path>
	</g>
</g>
<g xmlns="http://www.w3.org/2000/svg">
	<g>
		<path d="M130.126,82.463l13.013,6.895c3.854-7.274,11.341-11.794,19.54-11.794V62.838    C149.013,62.838,136.539,70.357,130.126,82.463z" fill="#ce9a62" data-original="#000000" class=""></path>
	</g>
</g>
<g xmlns="http://www.w3.org/2000/svg">
	<g>
		<path d="M195.57,145.803h14.728c0-10.557,8.589-19.146,19.146-19.146v-14.728C210.766,111.929,195.57,127.125,195.57,145.803z" fill="#ce9a62" data-original="#000000" class=""></path>
	</g>
</g>
<g xmlns="http://www.w3.org/2000/svg">
	<g>
		<g>
			<path d="M279.561,105.49c-4.263,10.32-6.425,21.237-6.425,32.448c0,3.225,0.186,6.482,0.549,9.68l14.633-1.666     c-0.302-2.647-0.455-5.343-0.455-8.014c0-9.271,1.786-18.297,5.309-26.824L279.561,105.49z" fill="#ce9a62" data-original="#000000" class=""></path>
			<path d="M297.196,78.72c-3.755,3.859-7.152,8.077-10.092,12.537l12.296,8.107c2.431-3.688,5.24-7.176,8.35-10.371L297.196,78.72z     " fill="#ce9a62" data-original="#000000" class=""></path>
		</g>
	</g>
</g>
<g xmlns="http://www.w3.org/2000/svg">
	<g>
		<path d="M386.876,166.76c-7.682,7.682-17.914,11.912-28.812,11.912c-10.898,0-21.131-4.23-28.812-11.912l-10.414,10.413    c10.463,10.463,24.395,16.226,39.226,16.226c0.001,0,0.001,0,0.002,0c14.831,0,28.761-5.762,39.224-16.226L386.876,166.76z" fill="#ce9a62" data-original="#000000" class=""></path>
	</g>
</g>
<g xmlns="http://www.w3.org/2000/svg">
	<g>
		<path d="M389.974,80.02c0,4.602-3.744,8.346-8.346,8.346v14.728c12.723,0,23.073-10.351,23.073-23.073H389.974z" fill="#ce9a62" data-original="#000000" class=""></path>
	</g>
</g>
<g xmlns="http://www.w3.org/2000/svg">
</g>
<g xmlns="http://www.w3.org/2000/svg">
</g>
<g xmlns="http://www.w3.org/2000/svg">
</g>
<g xmlns="http://www.w3.org/2000/svg">
</g>
<g xmlns="http://www.w3.org/2000/svg">
</g>
<g xmlns="http://www.w3.org/2000/svg">
</g>
<g xmlns="http://www.w3.org/2000/svg">
</g>
<g xmlns="http://www.w3.org/2000/svg">
</g>
<g xmlns="http://www.w3.org/2000/svg">
</g>
<g xmlns="http://www.w3.org/2000/svg">
</g>
<g xmlns="http://www.w3.org/2000/svg">
</g>
<g xmlns="http://www.w3.org/2000/svg">
</g>
<g xmlns="http://www.w3.org/2000/svg">
</g>
<g xmlns="http://www.w3.org/2000/svg">
</g>
<g xmlns="http://www.w3.org/2000/svg">
</g>
</g></svg>