<svg xmlns="http://www.w3.org/2000/svg" version="1.1" xmlns:xlink="http://www.w3.org/1999/xlink" xmlns:svgjs="http://svgjs.com/svgjs" width="512" height="512" x="0" y="0" viewBox="0 0 595.836 595.836" style="enable-background:new 0 0 512 512" xml:space="preserve" class=""><g><g xmlns="http://www.w3.org/2000/svg"><g><circle cx="288.308" cy="153.764" r="9.61" fill="#ce9a62" data-original="#000000" class=""></circle><circle cx="192.205" cy="153.764" r="9.61" fill="#ce9a62" data-original="#000000" class=""></circle><path d="m234.942 210.417 10.619-5.314c4.594-2.297 8.015-6.247 9.639-11.119s1.259-10.081-1.038-14.675l-4.296-8.592v-16.952h-19.221v19.221c0 1.49.346 2.97 1.009 4.296l5.314 10.619-10.619 5.314z" fill="#ce9a62" data-original="#000000" class=""></path><path d="m240.257 259.477c17.097 0 33.05-9.207 41.612-24.026l-16.626-9.61c-5.151 8.889-14.723 14.415-24.987 14.415-10.254 0-19.826-5.526-24.987-14.425l-16.626 9.63c8.583 14.809 24.527 24.016 41.614 24.016z" fill="#ce9a62" data-original="#000000" class=""></path><path d="m288.308 403.631h-96.103v76.882h96.103zm-19.221 57.662h-57.662v-38.441h57.662z" fill="#ce9a62" data-original="#000000" class=""></path><circle cx="490.123" cy="297.918" r="9.61" fill="#ce9a62" data-original="#000000" class=""></circle><circle cx="394.021" cy="297.918" r="9.61" fill="#ce9a62" data-original="#000000" class=""></circle><path d="m423.053 358.021-12.686 14.435c8.755 7.717 20.018 11.955 31.704 11.955 11.696 0 22.978-4.257 31.762-11.984l-12.705-14.425c-10.522 9.264-27.561 9.273-38.075.019z" fill="#ce9a62" data-original="#000000" class=""></path><path d="m436.758 344.96 10.619-5.315c4.594-2.297 8.015-6.247 9.639-11.119s1.259-10.081-1.038-14.675l-4.296-8.582v-16.962h-19.221v19.221c0 1.49.346 2.97 1.009 4.296l5.314 10.619-10.619 5.314z" fill="#ce9a62" data-original="#000000" class=""></path><path d="m480.504 425.293v-6.103l9.86-4.93c29.494-14.742 47.821-44.39 47.821-77.363v-.538c21.2 0 38.431-17.241 38.431-38.441 0-7.852-2.383-15.146-6.448-21.239 4.2-11.061 6.448-22.642 6.448-34.578 0-54.01-43.938-97.948-97.948-97.948h-73.182c-7.496 0-14.771.923-21.786 2.528-1.067-5.68-3.402-10.869-6.67-15.376 4.747-11.494 7.381-23.882 7.381-36.317-.001-52.376-42.612-94.988-94.988-94.988h-98.333c-52.376 0-94.988 42.612-94.988 94.988 0 12.436 2.633 24.823 7.39 36.317-4.603 6.333-7.39 14.05-7.39 22.459 0 21.2 17.241 38.441 38.441 38.441h.058c.327 39.412 22.296 74.777 57.604 92.432v14.752l-10.927 1.816c-26.178 4.363-50.31 17.135-68.79 36.038-2.182-.529-4.43-.884-6.775-.884h-76.882c-15.896 0-28.831 12.936-28.831 28.831v9.61c0 18.548 13.205 34.068 30.705 37.663.01.442-.077.884-.058 1.326l1.24 19.903c-7.361 2.691-12.666 9.697-12.666 17.99v38.441c0 9.975 7.659 18.096 17.385 19.038l.653 10.437c.99 15.799 14.175 28.187 30.013 28.187s29.023-12.388 30.013-28.197l.038-.634h203.084c-7.755 19.009-12.099 39.671-12.099 61.217v15.665h307.528v-15.665c0-71.865-47.09-134.409-115.332-154.878zm1.268-28.235-9.87 4.94c-6.564 3.287-10.619 9.889-10.61 17.193v3.902l-38.441-.183v-3.748c-.019-7.313-4.084-13.887-10.619-17.164l-9.841-4.92c-22.959-11.465-37.201-34.53-37.201-60.17v-58.229c17.26-.509 32.809-9.524 41.91-23.622 5.353 2.883 11.369 4.411 17.587 4.411h.029c11.379 0 21.854-5.017 28.927-13.512 8.64 7.41 19.49 12.042 30.811 13.214 7.775 11.542 20.441 18.759 34.501 19.461l.01 58.248c-.001 25.659-14.244 48.723-37.193 60.179zm-135.803-79.919c-10.6 0-19.221-8.62-19.221-19.221 0-10.6 8.62-19.221 19.221-19.221zm-31.992-40.46c-4.065 6.093-6.448 13.387-6.448 21.239 0 1.749.288 3.412.519 5.093-2.912-.702-5.843-1.317-8.813-1.816l-10.927-1.807v-14.752c8.371-4.19 16.068-9.639 23.036-15.895.759 2.672 1.633 5.324 2.633 7.938zm31.992 59.68v.538c0 32.973 18.317 62.62 47.821 77.363l9.841 4.92v6.112c-30.724 9.216-57.114 26.947-76.882 50.262v-144.538c5.68 3.315 12.186 5.343 19.22 5.343zm192.215-19.22v-38.441c10.591 0 19.221 8.62 19.221 19.221-.01 10.599-8.63 19.22-19.221 19.22zm-59.516-153.765c43.41 0 78.727 35.318 78.727 78.727 0 7.217-1.067 14.262-2.979 21.104-4.949-2.326-10.417-3.729-16.241-3.729h-9.61-7.342c-9.591 0-18.221-5.334-22.507-13.916l-2.652-5.305h-5.939c-9.687 0-19.163-3.931-26.015-10.773l-15.04-15.05-7.852 15.655c-3.171 6.266-9.485 10.168-16.51 10.168h-.01c-4.699 0-9.139-1.807-12.513-5.084l-12.839-12.455-4.834 14.502c-4.44 13.31-16.847 22.257-30.878 22.257-2.931 0-5.632.029-8.053.288v-.288h-9.61c-5.824 0-11.292 1.403-16.241 3.729-1.912-6.842-2.979-13.887-2.979-21.104 0-43.41 35.318-78.727 78.727-78.727h73.19zm-132.699 1.106v-29.936c10.321 0 18.711 8.198 19.144 18.423-6.842 3.104-13.252 6.986-19.144 11.513zm-230.646-10.716c0-10.6 8.62-19.221 19.221-19.221v38.441c-10.6.001-19.221-8.62-19.221-19.22zm19.221-38.441c-5.468 0-10.639 1.182-15.357 3.248-2.479-7.611-3.863-15.588-3.863-23.584 0-41.776 33.992-75.767 75.767-75.767h98.332c41.776 0 75.767 33.992 75.767 75.767 0 7.996-1.384 15.972-3.863 23.584-4.719-2.066-9.889-3.248-15.357-3.248v-19.22c0-15.895-12.935-28.831-28.831-28.831h-19.221v19.221h19.221c5.305 0 9.61 4.315 9.61 9.61 0 10.6-8.62 19.221-19.221 19.221-16.414 0-32.521-5.651-45.341-15.905l-1.038-.836 7.256-18.135-17.846-7.131-11.244 28.11c-3.383 8.438-11.446 13.896-20.527 13.896-5.968 0-11.503-2.47-15.607-6.621 6.573-7.112 12.032-15.396 15.79-24.804l1.384-3.44-17.827-7.15-1.393 3.45c-9.38 23.43-31.743 38.566-56.979 38.566h-9.612zm19.22 76.037v-57.373c12.637-1.49 24.391-6.035 34.674-12.801 7.755 8.428 18.673 13.358 30.349 13.358 13.944 0 26.515-6.948 34.097-18.144 15.751 11.686 35.001 18.144 54.644 18.144 7.035 0 13.541-2.037 19.221-5.353v54.884c-12.022 16.261-19.221 36.298-19.221 58.027 0 .913.115 1.816.144 2.729-7.602 9.37-17.154 17.212-27.966 22.613-6.535 3.277-10.6 9.851-10.61 17.183v18.096l-28.831 21.623-28.831-21.623v-18.115c-.019-7.313-4.084-13.887-10.619-17.164-29.022-14.502-47.041-43.659-47.051-76.084zm71.866 146.037-14.204 14.204v-24.852zm14.627 12.551 15.242 15.242h-30.484zm14.626-12.551 14.204-10.648v24.852zm-70.452-17.231 7.775-1.297v65.542h96.103v-65.542l7.765 1.297c3.883.644 7.688 1.643 11.455 2.71v176.858h-134.544v-176.906c3.767-1.076 7.563-2.018 11.446-2.662zm-165.21 54.634v-9.61c0-5.295 4.305-9.61 9.61-9.61h76.882c5.305 0 9.61 4.315 9.61 9.61v9.61c0 9.533-6.996 17.404-16.107 18.903-1.451-2.624-3.123-5.122-5.199-7.342-6.91-7.342-16.655-11.561-26.745-11.561s-19.836 4.219-26.745 11.571c-2.076 2.21-3.748 4.719-5.199 7.342-9.111-1.509-16.107-9.379-16.107-18.913zm28.83 115.323h-9.61v-38.441h9.61c5.305 0 9.61 4.315 9.61 9.61v19.221c.001 5.295-4.305 9.61-9.61 9.61zm1.788-77.535c-.298-4.863 1.365-9.505 4.699-13.051 6.679-7.102 18.788-7.102 25.467 0 3.344 3.556 5.007 8.188 4.699 13.051l-1.259 20.182c-6.189.663-11.782 3.229-16.174 7.188-4.392-3.959-9.985-6.525-16.174-7.188zm36.653 39.094h9.61v19.221h-9.61c-5.305 0-9.61-4.315-9.61-9.61 0-5.296 4.306-9.611 9.61-9.611zm-19.22 76.882c-5.718 0-10.475-4.469-10.831-10.177l-.634-10.235c9.726-2.739 17.318-10.389 19.97-20.143 1.336.538 2.729.951 4.152 1.288l-1.816 29.09c-.366 5.709-5.123 10.177-10.841 10.177zm31.877-38.748c9.139-1.47 16.174-9.351 16.174-18.913v-19.221c0-8.294-5.305-15.3-12.676-18l1.24-19.903c.029-.442-.067-.884-.058-1.326 17.51-3.585 30.714-19.105 30.714-37.653v-9.61c0-6.439-2.201-12.34-5.785-17.145 7.438-7.102 15.895-12.983 25.006-17.644v169.333h-55.24zm208.427 86.8c1.557-63.678 45.005-118.543 106.866-134.544h55.259c61.871 16.001 105.309 70.866 106.866 134.544z" fill="#ce9a62" data-original="#000000" class=""></path><path d="m335.417 534.619 17.865 7.083c11.225-28.331 34.213-50.242 63.063-60.103l-6.208-18.192c-34.184 11.705-61.419 37.653-74.72 71.212z" fill="#ce9a62" data-original="#000000" class=""></path><path d="m476.717 464.377-6.641 18.038c27.745 10.216 49.897 31.829 60.775 59.286l17.865-7.073c-12.877-32.54-39.132-58.142-71.999-70.251z" fill="#ce9a62" data-original="#000000" class=""></path><path d="m432.462 490.123h19.221v67.272h-19.221z" fill="#ce9a62" data-original="#000000" class=""></path></g></g></g></svg>