<svg xmlns="http://www.w3.org/2000/svg" version="1.1" xmlns:xlink="http://www.w3.org/1999/xlink" xmlns:svgjs="http://svgjs.com/svgjs" width="512" height="512" x="0" y="0" viewBox="0 0 66 66" style="enable-background:new 0 0 512 512" xml:space="preserve" class=""><g><g xmlns="http://www.w3.org/2000/svg" fill="rgb(0,0,0)"><path d="m43.5 30.1c-.2.1-.4.4-.5.7-.9 4-3.3 4.5-6.5 5.1-2.2.4-4.6.9-6.4 2.8-.1.1-.3.2-.3.4v.1c-.1.2-.3.3-.4.5-.3.5-.2 1.1.3 1.4.2.1.4.2.6.2.3 0 .6-.2.8-.4 0 0 0-.1.1-.1.8.2 2.1.5 4 .5 2.8 0 7-.6 12.6-2.6.5-.2.8-.8.6-1.3s-.8-.8-1.3-.6c-7.3 2.7-11.8 2.7-14.1 2.4 1.2-.6 2.6-.9 4-1.2 3-.6 6.3-1.3 7.7-5.5 4.8 1.9 5.4 3.7 6 5.5.3.9.6 1.8 1.3 2.8.3.4.9.5 1.4.2.4-.3.5-.9.2-1.4-.5-.7-.7-1.4-1-2.2-.7-2.3-1.6-4.8-8.2-7.2-.4-.2-.7-.2-.9-.1z" fill="#ce9a62" data-original="#000000" class=""></path><path d="m64.9 47.3c-.2-2.4-2.4-4.2-4.9-4.2l-31.7.3c-2.5 0-4.7 2-4.8 4.5-.3 4.6 2.1 10.3 6.5 15.4.9 1 2.3 1.6 3.6 1.6 3.5 0 7 .1 10.5.1s7 0 10.5.1c1.6 0 3-.6 3.8-1.6 3.6-4.2 7.3-10.7 6.5-16.2zm-8.1 14.9c-.6.8-1.5.9-2.2.9-3.5 0-7-.1-10.5-.1s-7 0-10.5-.1c-.8 0-1.6-.4-2.2-1-4-4.6-6.3-9.9-6-14 .1-1.5 1.3-2.7 2.8-2.7l31.7-.2c1.5 0 2.8 1.1 2.9 2.5.7 4.1-1.6 9.7-6 14.7z" fill="#ce9a62" data-original="#000000" class=""></path><path d="m22.2 37.4c-.5-.3-1.1-.2-1.4.3-10.2 15.9-16.2 22.1-17.8 22.5-.5-1.6 2-9.8 11-26.7.3-.5.1-1.1-.4-1.3-.5-.3-1.1-.1-1.3.4-9.6 17.9-13 27.8-10.4 29.4.3.2.6.3.9.3 1.2 0 3.2-1.2 7.2-6.1 3.5-4.2 7.8-10.2 12.5-17.4.3-.5.1-1.1-.3-1.4z" fill="#ce9a62" data-original="#000000" class=""></path><path d="m18.6 33.8c2.3 1.4 5 2.1 7.7 2.1 4.5 0 8.9-2 12-5.4.8-.8 1.1-2 1-3.1-.1-.9-.6-1.8-1.4-2.4l6.6-8.4c.5-.7.7-1.7.5-2.5s-.6-1.5-1.3-1.9c-.5-.3-1-.4-1.5-.4-1.1 0-2.2.6-2.7 1.6l-5.1 9.5-2.2-1.3 6.2-8.7c.5-.7.7-1.6.5-2.4s-.7-1.5-1.4-2c-.5-.3-1-.4-1.5-.4-1.2 0-2.2.7-2.7 1.7l-4.6 9.6-2.1-1.3 5.8-9.2c.8-1.4.5-3.2-.8-4.2 0 0-.1-.1-.1-.1-.5-.2-1-.4-1.5-.4-1.2 0-2.3.7-2.8 1.9l-4.1 9.9-2.2-1.3 5.4-9.5c.3-.4.5-1 .5-1.6 0-1.1-.6-2.1-1.5-2.6-.5-.3-1-.5-1.6-.5-1.3 0-2.4.8-2.8 2l-3.6 10c-.6-.3-1.2-.5-1.8-.5-1.7 0-3.1 1.1-3.5 2.6-2.6 7.6.2 15.4 6.6 19.2zm10.3-26.7c.3-.6.9-.8 1.5-.6.5.4.6 1 .3 1.5l-5.8 9.1-.1-.1zm12.4 7.2c.2-.5.9-.7 1.4-.4.3.2.4.4.4.6.1.3 0 .7-.2.9l-6.6 8.6-.1-.1zm-6.2-3.6c.2-.5.9-.8 1.4-.5.3.2.4.4.5.7s0 .6-.2.8l-6.3 8.9-.1-.1zm-12.4-7.2c.2-.6.9-.8 1.4-.5 0 0 .1 0 .1.1.3.1.5.5.5.8 0 .1-.1.3-.2.5l-5.4 9.5-.1-.1zm-9 12c.2-.8 1-1.2 1.6-1.2.3 0 .6.1.9.3l12.1 7.1s.1.1.1.1l1.7 1c.1 0 .2.1.2.1l6 3.5c.5.3.8.7.8 1.3.1.5-.1 1-.5 1.4-2.7 3-6.6 4.7-10.6 4.7-2.4 0-4.7-.6-6.7-1.8-5.3-3.3-7.7-10-5.6-16.5z" fill="#ce9a62" data-original="#000000" class=""></path></g></g></svg>