<svg xmlns="http://www.w3.org/2000/svg" version="1.1" xmlns:xlink="http://www.w3.org/1999/xlink" xmlns:svgjs="http://svgjs.com/svgjs" width="512" height="512" x="0" y="0" viewBox="0 0 512 512" style="enable-background:new 0 0 512 512" xml:space="preserve" class=""><g><g xmlns="http://www.w3.org/2000/svg"><path d="m256 254.321c13.509 0 24.5-10.99 24.5-24.5s-10.991-24.5-24.5-24.5-24.5 10.99-24.5 24.5 10.991 24.5 24.5 24.5zm0-34c5.238 0 9.5 4.262 9.5 9.5s-4.262 9.5-9.5 9.5-9.5-4.262-9.5-9.5 4.262-9.5 9.5-9.5z" fill="#ce9a62" data-original="#000000" class=""></path><path d="m368.768 158.706-21.778-41.279c-.189-.357-.289-.761-.289-1.165v-70.968c0-6.442-4.658-11.807-10.781-12.928v-24.866c0-4.143-3.358-7.5-7.5-7.5s-7.5 3.357-7.5 7.5v24.641h-21.21v-24.641c0-4.143-3.358-7.5-7.5-7.5s-7.5 3.357-7.5 7.5v24.641h-21.21v-24.641c0-4.143-3.358-7.5-7.5-7.5s-7.5 3.357-7.5 7.5v24.641h-21.21v-24.641c0-4.143-3.358-7.5-7.5-7.5s-7.5 3.357-7.5 7.5v24.641h-21.21v-24.641c0-4.143-3.358-7.5-7.5-7.5s-7.5 3.357-7.5 7.5v24.866c-6.123 1.121-10.781 6.486-10.781 12.928v70.968c0 .404-.1.808-.289 1.166l-21.777 41.278c-3.82 7.24-5.173 15.672-3.81 23.742l8.593 50.894c.619 3.661 3.793 6.252 7.387 6.252.415 0 .835-.034 1.257-.105 4.084-.689 6.836-4.56 6.147-8.645l-8.593-50.894c-.818-4.842-.006-9.9 2.286-14.244l13.734-26.031 31.943 37.879c-1.244 2.403-1.959 5.123-1.959 8.011v266.835l-31.5-186.557c-.69-4.083-4.563-6.838-8.644-6.146-4.084.689-6.836 4.56-6.147 8.645l38.679 229.072c1.214 7.189 6.652 12.686 13.524 14.173.036.008.072.017.109.024 1.173.246 2.382.389 3.623.389h92.28c1.242 0 2.451-.143 3.625-.389.035-.007.069-.016.104-.024 6.873-1.485 12.313-6.983 13.527-14.173l23.305-138.02c.689-4.085-2.063-7.955-6.147-8.645-4.085-.689-7.954 2.063-8.644 6.146l-16.126 95.504v-266.835c0-2.888-.715-5.607-1.959-8.011l31.943-37.879 13.734 26.031c2.292 4.344 3.104 9.402 2.286 14.244l-24.026 142.293c-.689 4.085 2.063 7.955 6.147 8.645.423.071.843.105 1.257.105 3.593 0 6.768-2.591 7.387-6.252l24.026-142.293c1.359-8.069.006-16.501-3.813-23.741zm-188.469-111.565h151.402v29.917h-151.402zm113.985 135.923c1.378 0 2.5 1.121 2.5 2.5v311.436h-81.567v-311.436c0-1.379 1.122-2.5 2.5-2.5zm3.604-14.622c-1.164-.245-2.368-.377-3.604-.377h-76.567c-1.236 0-2.44.133-3.604.377l-36.328-43.081.492-.933c1.323-2.507 2.023-5.331 2.023-8.167v-24.203h151.402v24.204c0 2.836.7 5.66 2.022 8.166l.493.934z" fill="#ce9a62" data-original="#000000" class=""></path><path d="m239 302.028h34c4.142 0 7.5-3.357 7.5-7.5s-3.358-7.5-7.5-7.5h-34c-4.142 0-7.5 3.357-7.5 7.5s3.358 7.5 7.5 7.5z" fill="#ce9a62" data-original="#000000" class=""></path></g></g></svg>