<svg xmlns="http://www.w3.org/2000/svg" version="1.1" xmlns:xlink="http://www.w3.org/1999/xlink" xmlns:svgjs="http://svgjs.com/svgjs" width="512" height="512" x="0" y="0" viewBox="0 0 64 64" style="enable-background:new 0 0 512 512" xml:space="preserve" class=""><g><g xmlns="http://www.w3.org/2000/svg"><path d="m44.293 14.293-.293.293c-.526.526-1.474.526-2 0l-.293-.293-1.414 1.414.293.293c.645.645 1.502 1 2.414 1s1.77-.355 2.414-1l.293-.293z" fill="#ce9a62" data-original="#000000" class=""></path><path d="m59.879 46c-.834 0-1.618.324-2.207.914l-.672.672v-11.733h-.038c.019-.259.038-.518.038-.78 0-3.512-1.745-6.771-4.667-8.719l-1.332-.888.002-.774 1.449-.543c3.917-1.469 6.548-5.266 6.548-9.448 0-5.006-3.413-9.261-8.3-10.347l-1.106-.246c-1.458-1.954-3.745-3.108-6.199-3.108h-.604c-1.973 0-3.833.733-5.292 2.095l-1.575.394c-1.722.43-2.924 1.969-2.924 3.744 0 1.034.403 1.994 1.1 2.702-.691.588-1.1 1.453-1.1 2.391 0 1.445.979 2.7 2.382 3.051l1.279.32c-.142.28-.315.544-.539.768l-.415.415c-.456.454-.707 1.061-.707 1.706 0 1.19.865 2.182 2 2.378v.793c0 2.891 2.352 5.243 5.243 5.243.257 0 .507-.038.757-.074v1.474c-3.698 2.094-5.973 5.961-5.996 10.245-.634-.45-1.205-.995-1.672-1.637l-4.611-6.341c-.368-.506-.847-.91-1.388-1.196.037-.027.072-.056.113-.077.959-.479 1.554-1.442 1.554-2.512v-3.882c0-1.103-.897-2-2-2h-6c-.474 0-.904.172-1.247.449l-13.19-5.073 1.047 4.187-7.951-2.272 2.955 4.432-3.184 2.122 2.283 2.283-2.582 3.872h5.869v2.789c0 .594-.174 1.169-.504 1.664l-1.07 1.605c-.279.419-.426.905-.426 1.407 0 1.215.858 2.232 2 2.479v1.148c0 2.706 2.202 4.908 4.908 4.908.372 0 .737-.047 1.092-.128v2.108c-4.793 2.45-8 7.459-8 13.02v1h26v-1c0-6.486-3.891-12.233-9.913-14.643l-.087-.034v-1.705l.081-.04c2.574-1.287 4.494-3.584 5.376-6.273l1.062 1.533c2.291 3.309 5.675 5.629 9.481 6.621v15.541h20v-9.613l1.286.429c.366.122.747.184 1.133.184 1.975 0 3.581-1.606 3.581-3.581v-1.298c0-1.721-1.4-3.121-3.121-3.121zm-9.864-27h-.998l-.017 6.609c-1.236 1.275-2.333 2.665-3.292 4.15l-.708-1.062v-2.495c.338-.211.661-.449.95-.738.677-.677 1.05-1.578 1.05-2.536v-2.515l3.347-3.347c.383.138.661.499.661.94 0 .549-.445.994-.993.994zm-14.148-5.564c-.511-.127-.867-.584-.867-1.11 0-.437.243-.829.633-1.024l2.604-1.302-2.209-1.104c-.634-.317-1.028-.954-1.028-1.663 0-.855.579-1.597 1.409-1.804l1.834-.458.295-.094.196-.196c1.083-1.084 2.524-1.681 4.057-1.681h.604c1.922 0 3.707.955 4.773 2.555l.223.334 1.875.417c3.965.881 6.734 4.333 6.734 8.395 0 3.353-2.11 6.397-5.25 7.575l-.742.278.004-1.725c1.161-.412 1.995-1.524 1.995-2.836 0-1.327-.868-2.454-2.065-2.845-.406-2.353-2.461-4.148-4.927-4.148h-1.969c-.551 0-1-.449-1-1.008 0-.547.445-.992.992-.992h.996v-2h-.996c-1.545 0-2.805 1.181-2.961 2.692l-2.191.876c-1.146.459-1.886 1.552-1.886 2.786v.365zm1.547 5.564c-.228 0-.414-.186-.414-.414 0-.109.044-.216.121-.293l.415-.415c.944-.944 1.464-2.199 1.464-3.535v-.989c0-.411.247-.776.629-.929l1.92-.768c.538.809 1.455 1.343 2.497 1.343h1.969c1.521 0 2.767 1.141 2.961 2.61l-3.39 3.39zm4.829 6c-1.788 0-3.243-1.455-3.243-3.243v-.757h6v1.929c0 .424-.165.822-.464 1.122-.613.612-1.427.949-2.293.949zm1.449 5.34.888 1.333c-.121.227-.257.445-.372.675l-.152.305c-.416.83-1.251 1.347-2.181 1.347h-1.663c.808-1.484 1.993-2.746 3.48-3.66zm-4.692 8.368c0-.933.13-1.842.375-2.708h2.501c1.692 0 3.212-.94 3.969-2.453l.152-.305c1.089-2.179 2.496-4.164 4.158-5.937l1.069.713c.317.211.617.441.898.689-1.625 1.372-2.855 3.133-3.591 5.154l-.493 1.355c-1.039 2.862-3.784 4.784-6.829 4.784-.759 0-1.501-.131-2.209-.359zm-12-15.708h2v2h-2zm-4 0h2v2h-2zm5.964 38h-21.924c.442-5.482 4.479-10.16 9.925-11.327l2.946-.631.432.173c4.948 1.978 8.248 6.537 8.621 11.785zm-8.964-24h-1v10.191l-2.454.526c-.529.113-1.042.265-1.546.433v-2.258c.376-.306.715-.664.992-1.079l.84-1.26-1.664-1.109-.84 1.26c-.54.812-1.445 1.296-2.42 1.296-1.284 0-2.365-.843-2.749-2h.604c1.76 0 3.343-.979 4.13-2.553l-1.789-.895c-.445.893-1.342 1.448-2.34 1.448h-.764v-2h-1.465c-.295 0-.535-.24-.535-.535 0-.106.031-.209.09-.297l1.07-1.605c.549-.825.84-1.784.84-2.774v-2.789h3c1.108 0 2.067-.611 2.586-1.507l2.862.818c.914.261 1.552 1.106 1.552 2.057v2.632h1c.551 0 1 .448 1 1s-.449 1-1 1zm1 6.313v-4.484c1.164-.413 2-1.525 2-2.829s-.836-2.416-2-2.829v-.803c0-1.838-1.234-3.475-3.002-3.979l-3.047-.871c-.232-1.425-1.462-2.518-2.951-2.518h-1v2h1c.551 0 1 .449 1 1s-.449 1-1 1h-7.131l1.418-2.127-1.717-1.718 2.817-1.878-1.045-1.568 6.049 1.728-.953-3.813 9.562 3.678v3.58c0 1.07.595 2.033 1.553 2.512.276.138.447.416.447.724v2.882h.005c0 .016-.005.031-.005.048 0 .828.249 1.625.72 2.305l1.197 1.729c-.321 2.548-1.771 4.844-3.917 6.231zm2.447-15.707c-.24-.12-.393-.347-.431-.606h5.967c-.038.259-.191.486-.431.605-.597.299-1.036.803-1.295 1.395h-.21c-.779 0-1.5.232-2.118.614-.156-.859-.679-1.607-1.482-2.008zm23.553 33.394h-8v-7.184c.314.112.648.184 1 .184h6c.351 0 .686-.065 1-.176zm0-11v1c0 .552-.449 1-1 1h-6c-.551 0-1-.448-1-1v-3.148c.72.095 1.449.148 2.186.148h.343c1.894 0 3.733-.333 5.471-.938zm8 11h-6v-9h6zm0-11h-6v-3.781c1.561-.788 3.01-1.816 4.283-3.088l.648-.647c.396-.396.746-.824 1.069-1.268zm-2.483-8.931-.648.647c-2.763 2.763-6.434 4.284-10.34 4.284h-.343c-4.797 0-9.292-2.355-12.022-6.3l-3.799-5.486c-.239-.344-.365-.747-.365-1.166 0-1.13.918-2.048 2.048-2.048h.4c.653 0 1.272.315 1.657.844l4.611 6.34c1.738 2.39 4.54 3.816 7.494 3.816 3.882 0 7.382-2.451 8.709-6.1l.493-1.355c.622-1.709 1.667-3.197 3.048-4.349.989 1.407 1.54 3.102 1.54 4.877 0 2.266-.882 4.395-2.483 5.996zm8.483 9.35c0 .872-.709 1.581-1.581 1.581-.17 0-.338-.027-.5-.081l-1.919-.639v-.866l2.086-2.086c.212-.212.493-.328.793-.328.618 0 1.121.503 1.121 1.121z" fill="#ce9a62" data-original="#000000" class=""></path><path d="m14 33c-1.654 0-3 1.346-3 3v1h2v-1c0-.552.449-1 1-1s1 .448 1 1v1h2v-1c0-1.654-1.346-3-3-3z" fill="#ce9a62" data-original="#000000" class=""></path></g></g></svg>