<svg xmlns="http://www.w3.org/2000/svg" version="1.1" xmlns:xlink="http://www.w3.org/1999/xlink" xmlns:svgjs="http://svgjs.com/svgjs" width="512" height="512" x="0" y="0" viewBox="0 0 512 512" style="enable-background:new 0 0 512 512" xml:space="preserve" class=""><g><g xmlns="http://www.w3.org/2000/svg"><path d="m15.215 71.264 65.457-37.788c7.257-4.196 15.535-5.046 23.047-3.033 7.513 2.012 14.288 6.889 18.455 14.118 56.329 97.575 112.658 195.151 168.986 292.697l55.904-96.78-32.828-18.967c-5.556-3.203-10.262-9.07-11.906-15.194-1.616-6.066-.936-12.784 2.466-18.681l37.845-65.571c2.07-3.571 6.633-4.79 10.206-2.749 3.572 2.069 4.819 6.634 2.749 10.204l-37.845 65.571c-1.333 2.295-1.588 4.933-.936 7.37.822 3.033 2.353 4.451 4.876 6.123l32.828 18.938 102.396-177.35-33.225-19.191c-2.154-1.305-4.961-1.446-7.342-.738-3.175.908-4.649 2.467-6.378 5.104l-37.392 64.747c-2.041 3.572-6.605 4.791-10.177 2.75-3.572-2.068-4.819-6.633-2.75-10.206l37.25-64.55c3.175-5.471 9.383-10.572 15.336-12.274 6.066-1.758 13.806-.736 19.391 2.495l33.678 19.419c3.402-3.316 7.598-5.641 12.077-6.859 6.974-1.872 14.628-.908 20.893 2.75 6.549 3.797 10.971 9.921 12.785 16.724 1.814 6.776 1.049 14.288-2.722 20.865l-146.874 254.371c-2.069 3.573-6.633 4.792-10.205 2.751-3.572-2.042-4.791-6.634-2.75-10.206l146.874-254.372c3.43-5.954 1.332-13.75-4.621-17.18-6.662-3.826-13.381-1.076-17.406 4.99l-173.578 300.636 14.543 25.174 17.208-29.822c2.04-3.572 6.605-4.791 10.177-2.75 3.6 2.068 4.819 6.633 2.778 10.206l-21.545 37.306 12.332 21.347c4.025 6.946 5.102 15.308 3.034 23.047-2.013 7.542-6.889 14.288-14.146 18.483l-65.486 37.788c-6.945 4.026-15.308 5.104-23.047 3.034-7.541-2.013-14.288-6.888-18.483-14.146-71.015-123.003-142.056-246.037-213.07-369.071-4.196-7.257-5.046-15.562-3.033-23.074 2.013-7.484 6.889-14.261 14.174-18.456zm237.987 351.636c-2.07-3.6-.851-8.163 2.721-10.233 3.572-2.068 8.164-.85 10.234 2.721l7.938 13.749c2.069 3.573.851 8.165-2.722 10.235-3.572 2.068-8.164.85-10.233-2.75zm-187.951-325.611c-2.069-3.573-.822-8.138 2.75-10.206 3.572-2.041 8.136-.822 10.177 2.75l7.938 13.749c2.069 3.6.822 8.163-2.75 10.204-3.572 2.07-8.136.822-10.177-2.748zm73.253 5.471-61.489 106.477 14.515 25.117 61.46-106.477zm-70.135 91.509 61.488-106.477-20.638-35.72c-2.098-3.656-5.528-6.123-9.355-7.172-3.94-1.049-8.221-.539-11.736 1.502l-65.485 37.818c-3.629 2.098-6.095 5.527-7.144 9.383-1.021 3.827-.595 8.023 1.502 11.679zm93.267-51.424-61.459 106.478 22.849 39.603 61.488-106.478zm86.18 149.256-61.488 106.447 14.515 25.146 61.488-106.449zm-70.135 91.509 61.488-106.477-22.877-39.604-20.071 34.783c-2.07 3.573-6.662 4.792-10.234 2.724-3.572-2.071-4.791-6.663-2.721-10.235l24.38-42.24-14.487-25.145-61.488 106.478 14.515 25.146 20.099-34.814c2.069-3.572 6.633-4.791 10.206-2.721 3.572 2.068 4.791 6.66 2.721 10.233l-24.38 42.268zm93.267-51.424-61.488 106.447 20.638 35.749c2.126 3.656 5.557 6.123 9.383 7.143 3.969 1.079 8.136.567 11.708-1.475l65.456-37.817c3.686-2.125 6.152-5.555 7.173-9.381 1.077-3.97.567-8.138-1.503-11.708z" fill="#ce9a62" data-original="#000000" class=""></path></g></g></svg>